<svg width="20" height="30" viewBox="0 0 20 30" fill="none" xmlns="http://www.w3.org/2000/svg">
<path fill-rule="evenodd" clip-rule="evenodd" d="M6.78965 17.5469V18.4158C6.11284 18.8072 5.65748 19.539 5.65748 20.3771C5.65748 21.2152 6.11284 21.9469 6.78965 22.3384V23.2073H1.69531V22.3383C2.37208 21.9468 2.8274 21.2151 2.8274 20.3771C2.8274 19.539 2.37208 18.8073 1.69531 18.4158V17.5469H6.78965Z" fill="#292FE1"/>
<path fill-rule="evenodd" clip-rule="evenodd" d="M12.4533 6.78965H11.5843C11.1929 6.1129 10.4612 5.65758 9.62312 5.65758C8.78507 5.65758 8.05336 6.1129 7.66187 6.78965H6.79297V1.69531H7.66187C8.05335 2.37207 8.78506 2.82739 9.62312 2.82739C10.4612 2.82739 11.1929 2.37207 11.5844 1.69531H12.4533V6.78965Z" fill="#C911EA"/>
<circle cx="4.24528" cy="4.24528" r="4.24528" fill="#C911EA"/>
<circle cx="15.0031" cy="15.0031" r="4.24528" fill="#292FE1"/>
<circle cx="15.0031" cy="4.24528" r="4.24528" fill="#C911EA"/>
<circle cx="4.24691" cy="15.0031" r="4.24528" transform="rotate(90 4.24691 15.0031)" fill="#292FE1"/>
<circle cx="4.24691" cy="25.7531" r="4.24528" transform="rotate(90 4.24691 25.7531)" fill="#292FE1"/>
</svg>
